<svg width="26" height="34" viewBox="0 0 26 34" fill="none" xmlns="http://www.w3.org/2000/svg">
<path d="M21.5 3.81505C19.3619 1.67758 16.508 0.407835 13.4888 0.250878C10.4697 0.0939223 7.49939 1.06088 5.15127 2.96513C2.80314 4.86938 1.24361 7.57592 0.773675 10.5624C0.303741 13.5489 0.956713 16.6036 2.60657 19.1369L11.1078 32.1878C11.297 32.4782 11.5557 32.7168 11.8604 32.882C12.1651 33.0472 12.5062 33.1337 12.8528 33.1337C13.1994 33.1337 13.5405 33.0472 13.8452 32.882C14.1499 32.7168 14.4086 32.4782 14.5978 32.1878L23.0994 19.1369C24.6302 16.7869 25.3068 13.982 25.0156 11.1925C24.7244 8.40294 23.4832 5.79827 21.5 3.81505ZM21.2141 17.9088L12.8529 30.7443L4.49151 17.9088C1.93213 13.9798 2.48106 8.72181 5.79672 5.40601C6.72333 4.47937 7.82339 3.74431 9.03409 3.24282C10.2448 2.74132 11.5424 2.4832 12.8529 2.4832C14.1633 2.4832 15.4609 2.74132 16.6716 3.24282C17.8823 3.74431 18.9824 4.47937 19.909 5.40601C23.2247 8.72181 23.7735 13.9798 21.2141 17.9088Z" fill="#0395A4"/>
</svg>
